<?xml version="1.0"?>
<svg version="1.1" xmlns="http://www.w3.org/2000/svg" xmlns:xlink="http://www.w3.org/1999/xlink" width="260" height="80">
    <desc iVinci="yes" version="4.4" gridStep="20" showGrid="no" snapToGrid="no" codePlatform="0"/>
    <g id="Layer1">
        <g id="Shape1">
            <desc type="0" basicInfo-basicType="2" basicInfo-roundedRectRadius="12" basicInfo-polygonSides="6" basicInfo-starPoints="5" bounding="rect(-134.905,-40.403,269.81,80.8061)" text="" font-familyName="ＫＦひま字ふで" font-pixelSize="36" font-bold="0" font-underline="0" font-alignment="1" strokeStyle="0" markerStart="0" markerEnd="0" shadowEnabled="0" shadowOffsetX="0" shadowOffsetY="2" shadowBlur="4" shadowOpacity="160" blurEnabled="0" blurRadius="4" transform="matrix(0.917955,0,0,0.898305,129.315,40.4776)" pers-center="0,0" pers-size="0,0" pers-start="0,0" pers-end="0,0" locked="0" mesh="" flag=""/>
            <path id="shapePath1" d="M5.47841,14.963 C5.47841,9.00951 10.4102,4.18331 16.4939,4.18331 L242.137,4.18331 C248.22,4.18331 253.152,9.00951 253.152,14.963 L253.152,65.9921 C253.152,71.9456 248.22,76.7718 242.137,76.7718 L16.4939,76.7718 C10.4102,76.7718 5.47841,71.9456 5.47841,65.9921 L5.47841,14.963 Z" style="stroke:none;fill-rule:evenodd;fill:#b8d6e0;fill-opacity:1;"/>
        </g>
        <g id="Shape2">
            <desc type="2" basicInfo-basicType="0" basicInfo-roundedRectRadius="12" basicInfo-polygonSides="6" basicInfo-starPoints="5" bounding="rect(-117.785,-27.3919,235.57,54.7838)" text="おこめぶろぐ" font-familyName="ＫＦひま字ふで" font-pixelSize="36" font-bold="0" font-underline="0" font-alignment="1" strokeStyle="0" markerStart="0" markerEnd="0" shadowEnabled="0" shadowOffsetX="0" shadowOffsetY="2" shadowBlur="4" shadowOpacity="160" blurEnabled="0" blurRadius="4" transform="matrix(1,0,0,1,129.706,41.1111)" pers-center="0,0" pers-size="0,0" pers-start="0,0" pers-end="0,0" locked="0" mesh="" flag=""/>
            <path id="shapePath2" d="M45.9342,57.0203 C47.0142,57.0203 47.9142,56.7323 48.7062,56.1203 C50.6862,54.4283 51.7302,52.4483 51.9102,50.1803 C51.9102,48.8123 51.7302,47.4083 51.2982,46.2203 C50.8302,44.9963 50.0742,43.9163 48.9942,42.8363 C47.9142,41.7923 46.6902,41.0003 45.3222,40.5683 C43.9542,40.1003 42.5862,39.9563 41.0742,40.1003 L41.2182,37.0403 C42.7302,37.0403 44.0982,36.7523 45.5022,35.9963 C46.4022,35.2043 46.8702,34.4483 47.0142,33.4043 L46.4022,31.7123 C45.0342,30.6323 43.3422,30.2003 41.5062,30.3443 C41.5062,28.7963 41.2182,27.4283 40.6062,26.2043 C39.8502,25.3043 38.9142,24.6923 37.8702,24.5483 C36.0342,24.2243 34.4862,24.5483 33.2982,25.6283 L32.2182,27.6083 L32.3622,28.9763 L32.3622,29.8763 L29.1582,29.7323 C27.5022,29.5883 25.9542,29.8763 24.5862,30.8123 C23.6862,31.5683 23.0742,32.6123 22.8942,33.8363 C22.7502,35.3843 23.2182,36.6083 24.1182,37.6523 L26.2782,38.7323 L31.4622,38.2643 L32.5062,38.2643 L32.5062,40.4243 C30.5262,40.7123 28.5462,41.4683 26.8902,42.5483 C25.1982,44.2043 24.2982,46.0403 24.1182,48.3443 C23.9742,50.3243 24.4422,52.1603 25.6662,53.6723 C27.0342,55.0403 28.5462,55.7963 30.3822,55.9763 C32.8302,55.7963 34.9542,54.8963 36.9342,53.3843 C38.0142,52.3043 38.7702,51.2243 39.2382,49.8563 C39.5262,48.4883 39.7062,47.1203 39.7062,45.6083 C41.2182,45.7523 42.5862,46.2203 43.6662,46.9763 L45.0342,49.1003 C45.0342,50.9363 44.7102,52.6283 43.9542,53.9963 L44.5662,56.1203 L45.9342,57.0203 M31.8942,50.3243 L31.1382,50.7923 L29.4822,50.3243 L29.0142,49.2443 L29.3022,47.5883 C30.3822,46.5083 31.7502,45.8963 33.1182,45.7523 L33.7302,45.7523 C33.7302,47.4083 33.2982,48.8123 32.3622,50.1803 L31.8942,50.3243 M52.3422,42.8363 C53.5662,43.0163 54.6462,42.8363 55.5462,42.0803 C56.4822,41.3243 56.9142,40.4243 57.0942,39.3443 C56.9142,37.9763 56.4822,36.6083 55.6902,35.5283 C54.9342,34.6283 54.1782,34.0163 53.2782,33.8363 C51.7302,33.6923 50.5062,34.1603 49.4622,35.0603 L48.7062,36.6083 C48.5262,38.2643 48.9942,39.8123 50.0742,41.1803 L52.3422,42.8363 M73.6902,56.1203 C75.9942,56.2643 78.1182,56.1203 80.2422,55.9763 C82.2222,55.7963 84.2022,55.0403 85.8942,53.9963 C86.7942,53.2043 87.2622,52.1603 87.4062,51.0803 C87.2622,49.5683 86.7942,48.2003 86.0382,46.7963 L84.5262,45.7523 C82.6902,45.8963 80.9982,46.3643 79.6302,47.1203 C78.1182,47.8763 76.4262,48.4883 74.7702,48.9563 C72.4662,49.1003 70.4862,48.9563 68.6502,48.2003 C67.2822,48.0203 65.9142,48.3443 64.8342,48.8123 L64.2222,49.8563 C64.0782,51.2243 64.5462,52.3043 65.3022,53.2043 C66.3822,54.4283 67.7502,55.2203 69.2622,55.5083 C70.6302,55.7963 72.1782,55.9763 73.6902,56.1203 M82.5462,37.0403 C83.9142,37.2203 85.1382,36.8963 86.1822,36.1403 L87.2622,34.4483 C87.1182,32.6123 86.5062,31.1003 85.4262,29.7323 C83.9142,28.0403 82.2222,26.9963 80.3862,26.2043 C78.4062,25.6283 76.4262,25.1603 74.3022,25.0163 C72.6102,25.1603 70.9542,25.1603 69.2622,25.0163 C67.5702,24.8363 66.0582,25.3043 64.6902,26.2043 C63.6102,27.2843 62.8542,28.6523 62.7102,30.0203 C62.7102,31.4243 62.9982,32.4683 63.7902,33.5483 L65.7702,34.7723 C67.8942,34.6283 70.0182,34.4483 71.9982,34.0163 C73.9782,33.6923 75.9942,33.4043 77.9742,33.2243 C79.3422,33.0803 80.5662,33.2243 81.6102,33.8363 L81.4662,34.4483 L81.4662,35.9963 L82.5462,37.0403 M106.522,54.1403 C107.278,54.2843 107.89,54.1403 108.358,53.6723 L108.79,52.7723 L108.646,51.4043 L108.646,50.3243 C110.338,48.9563 111.85,47.2643 113.218,45.6083 C114.586,43.9163 115.81,42.2243 117.034,40.5683 L118.546,41.1803 C119.95,42.4043 120.706,43.7723 120.85,45.4283 C120.706,47.4083 120.382,49.1003 119.626,50.7923 C119.482,51.5483 119.626,52.1603 119.95,52.7723 L121.462,53.5283 C122.83,53.6723 124.198,53.3843 125.278,52.6283 C126.358,51.5483 127.114,50.3243 127.546,48.9563 C128.014,47.5883 128.158,46.2203 128.338,44.8163 C128.338,42.8363 128.014,40.8563 127.258,39.0203 C126.646,37.6523 125.746,36.4283 124.666,35.3843 C123.586,34.3043 122.362,33.4043 120.994,32.7923 L121.606,30.3443 C121.606,29.1203 121.318,28.0403 120.706,27.1403 C119.77,26.0603 118.726,25.4483 117.358,25.3043 C116.134,25.1603 115.054,25.4483 114.154,26.2043 C113.218,27.8963 112.606,29.5883 112.138,31.2443 L107.566,32.0003 L106.666,32.0003 C106.81,30.9563 106.522,29.8763 106.054,29.1203 L104.218,27.8963 C102.85,27.7523 101.626,28.0403 100.726,28.7963 C99.6462,29.7323 99.1782,30.8123 99.0342,32.1803 L99.3582,34.1603 C98.5662,35.8163 97.6662,37.3643 96.5862,38.8763 C95.5422,40.4243 94.7502,42.0803 94.6062,43.9163 C94.3182,46.6523 94.9302,49.1003 96.4422,51.0803 C97.8102,52.4483 99.5022,53.3843 101.338,53.5283 C102.562,53.6723 103.606,53.3843 104.686,52.9163 L106.522,54.1403 M102.706,47.7323 L101.95,47.8763 L100.546,47.7323 L99.7902,46.9763 C99.6462,45.6083 100.114,44.2043 101.014,43.1603 C101.77,44.3843 102.238,45.7523 102.706,47.1203 L102.706,47.7323 M107.746,42.0803 L107.566,42.2243 L107.134,39.8123 L107.134,39.2003 L109.114,39.2003 L107.746,41.9363 L107.746,42.0803 M144.322,56.1203 C146.77,56.2643 148.894,55.6523 150.586,54.2843 C152.566,52.6283 153.79,50.4683 154.258,48.0203 C154.078,46.0403 153.79,44.0603 153.322,42.2243 C152.71,40.5683 151.81,38.8763 150.73,37.2203 C149.506,35.6723 147.994,34.7723 146.158,34.6283 C145.078,34.7723 144.178,35.0603 143.422,35.6723 C142.342,36.7523 141.586,38.1203 141.442,39.4883 L141.73,41.4683 C143.098,43.4483 144.79,44.9963 146.77,46.0403 L147.706,47.5883 C147.85,48.3443 147.526,49.1003 147.094,49.7123 C146.302,50.4683 145.546,50.7923 144.646,50.9363 L143.566,50.7923 L141.298,51.0803 L139.606,52.6283 C139.462,53.3843 139.75,54.1403 140.218,54.7523 C141.442,55.6523 142.81,56.1203 144.322,56.1203 M160.342,51.8363 C161.566,51.8363 162.646,51.5483 163.69,50.7923 L164.482,49.5683 C164.626,46.9763 163.69,44.8163 162.034,43.1603 C160.954,42.0803 159.586,41.3243 158.218,40.8563 C157.462,40.7123 156.85,40.8563 156.382,41.1803 L155.626,42.4043 C155.914,43.7723 156.382,45.1403 156.85,46.5083 C157.282,47.8763 157.75,49.4243 158.074,50.7923 L160.342,51.8363 M132.118,51.4043 C133.486,51.5483 134.566,51.4043 135.502,50.6123 C136.87,48.9563 137.77,46.9763 138.094,44.6723 L137.77,42.8363 L136.258,41.7923 C134.566,41.9363 133.198,42.5483 132.118,43.6283 C130.894,44.9963 130.138,46.3643 129.994,48.0203 C129.994,48.9563 130.138,49.7123 130.606,50.3243 L132.118,51.4043 M156.778,32.7203 C157.822,32.5763 158.758,32.2883 159.514,31.6763 L160.594,29.9843 C160.738,29.0843 160.414,28.2923 159.982,27.5363 L157.678,26.3123 L155.842,26.6363 C154.942,27.0683 154.33,27.6803 153.862,28.4723 C153.718,29.5163 154.006,30.4523 154.474,31.2083 C155.086,31.9643 155.842,32.5763 156.778,32.7203 M148.894,32.7923 C150.298,32.9363 151.342,32.7923 152.278,32.0003 L153.034,30.6323 C153.178,29.2643 152.71,28.0403 151.954,26.9963 C149.83,25.4483 147.382,24.6923 144.79,24.5483 C143.422,24.5483 142.198,24.8363 141.118,25.6283 C140.074,26.3843 139.606,27.4283 139.462,28.5083 L140.074,30.6323 C141.298,31.5683 142.666,32.0003 144.322,32.1803 C145.87,32.3243 147.382,32.6123 148.894,32.7923 M162.79,28.6523 L163.87,28.4723 L165.238,26.9603 C165.382,26.0603 165.238,25.2683 164.77,24.5123 L162.934,23.4323 L161.89,23.6123 C160.954,24.0443 160.342,24.6563 159.91,25.5923 C159.73,26.3483 159.91,27.1043 160.342,27.5723 L162.79,28.6523 M182.266,56.6963 C184.534,56.8403 186.514,56.3723 188.494,55.6163 C190.474,54.8603 192.166,53.9243 193.858,52.5563 C194.902,51.6563 195.658,50.5763 196.45,49.5323 C197.062,48.4523 197.35,47.2283 197.494,45.8603 C197.494,44.0243 197.062,42.3323 195.982,40.9643 C194.47,39.3083 192.634,38.3723 190.654,38.0843 C188.818,37.9403 187.126,38.2283 185.47,38.6963 L184.678,38.6963 L185.29,38.0843 C186.514,36.8603 187.738,35.6363 188.962,34.4123 C190.186,33.1883 191.086,31.8203 191.842,30.4523 C192.022,29.0843 191.698,27.8603 190.942,26.9243 C189.862,25.5563 188.638,24.8003 187.27,24.3323 C185.902,24.0443 184.39,23.9003 182.842,23.7203 C180.862,23.5763 179.062,23.5763 177.046,23.7203 C175.066,23.9003 173.41,24.3323 171.718,25.1243 C170.818,26.0243 170.35,27.1043 170.206,28.4723 C170.062,30.1283 170.35,31.6763 171.25,32.9003 C172.042,33.6563 172.798,34.1243 173.698,34.2683 C175.39,34.2683 177.046,33.9443 178.594,33.1883 C180.106,32.5763 181.654,31.9643 183.166,31.5323 L184.678,31.5323 C183.31,33.0443 181.798,34.4123 180.106,35.6363 C178.45,37.0043 176.614,38.2283 174.922,39.3083 C174.022,40.0643 173.41,40.9643 173.266,42.0443 C173.266,42.9443 173.554,43.7363 174.022,44.4923 L175.39,45.3923 L183.922,43.4123 L187.738,43.7363 C188.494,44.1683 188.962,44.6363 189.43,45.3923 C189.574,46.1483 189.43,46.7603 189.106,47.3723 C188.062,48.4523 186.982,49.2083 185.758,49.6763 C184.39,50.2883 183.166,50.9003 181.942,51.3323 C180.862,51.8003 180.106,52.4123 179.494,53.1683 C179.35,53.9243 179.494,54.7163 179.962,55.3283 C180.574,56.0843 181.33,56.5163 182.266,56.6963 M218.626,57.4883 C220.282,57.6323 221.83,57.3443 222.874,56.2643 L224.242,53.5283 L223.954,51.0803 C222.262,48.9563 220.282,47.2643 218.014,46.2203 C215.71,45.1403 213.586,43.7723 211.426,42.4043 L211.606,41.7923 C213.586,40.7123 215.71,39.8123 217.834,38.8763 C219.994,38.1203 221.974,36.8963 223.81,35.3843 C224.71,34.4483 225.322,33.4043 225.79,32.1803 C225.934,29.8763 225.322,27.8963 223.954,26.2043 L221.362,24.5483 C218.914,24.5483 216.79,25.1603 214.954,26.5283 C213.118,27.8963 211.282,29.4083 209.626,30.9563 C208.222,32.3243 206.854,33.6923 205.63,35.0603 C204.262,36.6083 203.506,38.2643 203.038,40.1003 C202.894,41.7923 203.218,43.1603 203.83,44.3843 C204.442,45.7523 205.198,46.9763 206.242,48.0203 C208.222,50.0003 210.238,51.8363 212.218,53.5283 C214.198,55.2203 216.322,56.5883 218.626,57.4883 M229.03,37.7603 C230.11,37.7603 230.866,37.4723 231.622,36.8603 C232.378,36.2483 232.846,35.4923 232.99,34.5563 L232.378,32.7203 C231.622,31.9643 230.866,31.4963 229.966,31.3523 C228.886,31.3523 227.986,31.6763 227.194,32.2883 L226.15,33.8003 C225.97,34.8803 226.294,35.6363 226.906,36.3923 C227.518,37.1483 228.274,37.6163 229.03,37.7603 M234.79,32.3243 L236.338,31.7123 L237.094,30.3443 C237.238,29.4083 236.95,28.6523 236.482,28.0403 L234.97,27.1403 C234.214,26.9963 233.422,27.2843 232.81,27.7523 L231.622,29.4083 L231.91,30.9563 C232.666,31.7123 233.746,32.1803 234.79,32.3243 " style="stroke:none;fill-rule:nonzero;fill:#33495d;fill-opacity:1;"/>
        </g>
    </g>
</svg>
